<?xml version="1.0" encoding="UTF-8" standalone="no"?><!DOCTYPE svg PUBLIC "-//W3C//DTD SVG 1.1//EN" "http://www.w3.org/Graphics/SVG/1.1/DTD/svg11.dtd"><svg width="100%" height="100%" viewBox="0 0 240 240" version="1.1" xmlns="http://www.w3.org/2000/svg" xmlns:xlink="http://www.w3.org/1999/xlink" xml:space="preserve" xmlns:serif="http://www.serif.com/" style="fill-rule:evenodd;clip-rule:evenodd;stroke-linejoin:round;stroke-miterlimit:2;"><g><path d="M57.523,202.102c-10.877,0 -20.639,-2.545 -29.285,-7.635c-8.646,-5.09 -15.479,-12.028 -20.499,-20.813c-5.02,-8.785 -7.6,-18.686 -7.74,-29.703l0,-95.384c0,-3.207 1.011,-5.787 3.033,-7.74c2.022,-1.952 4.567,-2.928 7.635,-2.928c3.207,0 5.787,0.976 7.74,2.928c1.952,1.952 2.928,4.532 2.928,7.74l0,56.477c4.881,-5.857 10.773,-10.494 17.675,-13.91c6.903,-3.417 14.468,-5.125 22.696,-5.125c10.18,0 19.314,2.545 27.402,7.635c8.088,5.09 14.468,11.993 19.14,20.708c4.672,8.716 7.007,18.582 7.007,29.598c0,11.017 -2.545,20.918 -7.635,29.703c-5.09,8.785 -11.958,15.723 -20.604,20.813c-8.646,5.09 -18.477,7.635 -29.494,7.635Zm0,-18.826c7.112,0 13.457,-1.708 19.035,-5.125c5.578,-3.417 10.006,-8.123 13.283,-14.119c3.277,-5.996 4.916,-12.69 4.916,-20.081c0,-7.53 -1.639,-14.224 -4.916,-20.081c-3.277,-5.857 -7.705,-10.494 -13.283,-13.91c-5.578,-3.417 -11.923,-5.125 -19.035,-5.125c-6.973,0 -13.283,1.708 -18.93,5.125c-5.648,3.417 -10.075,8.053 -13.283,13.91c-3.207,5.857 -4.811,12.551 -4.811,20.081c0,7.391 1.604,14.085 4.811,20.081c3.207,5.996 7.635,10.703 13.283,14.119c5.648,3.417 11.958,5.125 18.93,5.125Z" style="fill-rule:nonzero;"/><circle cx="60.488" cy="147.076" r="16.934"/><path d="M182.477,202.102c10.877,0 20.639,-2.545 29.285,-7.635c8.646,-5.09 15.479,-12.028 20.499,-20.813c5.02,-8.785 7.6,-18.686 7.74,-29.703l0,-95.384c0,-3.207 -1.011,-5.787 -3.033,-7.74c-2.022,-1.952 -4.567,-2.928 -7.635,-2.928c-3.207,0 -5.787,0.976 -7.74,2.928c-1.952,1.952 -2.928,4.532 -2.928,7.74l0,56.477c-4.881,-5.857 -10.773,-10.494 -17.675,-13.91c-6.903,-3.417 -14.468,-5.125 -22.696,-5.125c-10.18,0 -19.314,2.545 -27.402,7.635c-8.088,5.09 -14.468,11.993 -19.14,20.708c-4.672,8.716 -7.007,18.582 -7.007,29.598c0,11.017 2.545,20.918 7.635,29.703c5.09,8.785 11.958,15.723 20.604,20.813c8.646,5.09 18.477,7.635 29.494,7.635Zm0,-18.826c-7.112,0 -13.457,-1.708 -19.035,-5.125c-5.578,-3.417 -10.006,-8.123 -13.283,-14.119c-3.277,-5.996 -4.916,-12.69 -4.916,-20.081c0,-7.53 1.639,-14.224 4.916,-20.081c3.277,-5.857 7.705,-10.494 13.283,-13.91c5.578,-3.417 11.923,-5.125 19.035,-5.125c6.973,0 13.283,1.708 18.93,5.125c5.648,3.417 10.075,8.053 13.283,13.91c3.207,5.857 4.811,12.551 4.811,20.081c0,7.391 -1.604,14.085 -4.811,20.081c-3.207,5.996 -7.635,10.703 -13.283,14.119c-5.648,3.417 -11.958,5.125 -18.93,5.125Z" style="fill-rule:nonzero;"/><circle cx="179.512" cy="147.076" r="16.934"/></g></svg>